<svg xmlns="http://www.w3.org/2000/svg" xmlns:xlink="http://www.w3.org/1999/xlink" width="500" zoomAndPan="magnify" viewBox="0 0 375 374.999991" height="500" preserveAspectRatio="xMidYMid meet" version="1.0"><defs><g/></defs><g fill="rgb(100%, 0%, 0%)" fill-opacity="1"><g transform="translate(33.85982, 176.741957)"><g><path d="M 25.65625 -11.742188 L 25.65625 -18.699219 L 10.4375 -18.699219 L 10.4375 -23.480469 L 30.003906 -23.480469 L 30.003906 -30.441406 L 0.21875 -30.441406 L 0.21875 -23.480469 L 3.480469 -23.480469 L 3.480469 0 L 10.4375 0 L 10.4375 -11.742188 Z M 25.65625 -11.742188 "/></g></g></g><g fill="rgb(100%, 0%, 0%)" fill-opacity="1"><g transform="translate(68.946556, 176.741957)"><g><path d="M 29.570312 0 L 33.917969 -4.347656 L 33.917969 -21.308594 L 26.960938 -21.308594 L 26.960938 -6.957031 L 2.175781 -6.957031 L 2.175781 -4.347656 L 6.523438 0 Z M 33.917969 -23.480469 L 33.917969 -26.089844 L 29.570312 -30.441406 L 6.523438 -30.441406 L 2.175781 -26.089844 L 2.175781 -9.132812 L 9.132812 -9.132812 L 9.132812 -23.480469 Z M 33.917969 -23.480469 "/></g></g></g><g fill="rgb(100%, 0%, 0%)" fill-opacity="1"><g transform="translate(109.685254, 176.741957)"><g><path d="M 29.570312 0 L 33.917969 -4.347656 L 33.917969 -21.308594 L 26.960938 -21.308594 L 26.960938 -6.957031 L 2.175781 -6.957031 L 2.175781 -4.347656 L 6.523438 0 Z M 33.917969 -23.480469 L 33.917969 -26.089844 L 29.570312 -30.441406 L 6.523438 -30.441406 L 2.175781 -26.089844 L 2.175781 -9.132812 L 9.132812 -9.132812 L 9.132812 -23.480469 Z M 33.917969 -23.480469 "/></g></g></g><g fill="rgb(100%, 0%, 0%)" fill-opacity="1"><g transform="translate(150.423952, 176.741957)"><g><path d="M 26.527344 0 L 30.875 -4.347656 L 30.875 -26.089844 L 26.527344 -30.441406 L 0.21875 -30.441406 L 0.21875 -23.480469 L 23.917969 -23.480469 L 23.917969 -6.957031 L 10.4375 -6.957031 L 10.4375 -21.308594 L 3.480469 -21.308594 L 3.480469 0 Z M 26.527344 0 "/></g></g></g><g fill="rgb(100%, 0%, 0%)" fill-opacity="1"><g transform="translate(188.119289, 176.741957)"><g/></g></g><g fill="rgb(100%, 0%, 0%)" fill-opacity="1"><g transform="translate(210.163035, 176.741957)"><g><path d="M 31.742188 0 L 31.742188 -6.957031 L 9.132812 -6.957031 L 9.132812 -23.480469 L 25.875 -23.480469 L 25.875 -19.132812 L 32.832031 -19.132812 L 32.832031 -26.089844 L 28.484375 -30.441406 L 6.523438 -30.441406 L 2.175781 -26.089844 L 2.175781 -4.347656 L 6.523438 0 Z M 31.742188 0 "/></g></g></g><g fill="rgb(100%, 0%, 0%)" fill-opacity="1"><g transform="translate(249.814808, 176.741957)"><g><path d="M 9.132812 0 L 9.132812 -30.441406 L 2.175781 -30.441406 L 2.175781 0 Z M 9.132812 0 "/></g></g></g><g fill="rgb(100%, 0%, 0%)" fill-opacity="1"><g transform="translate(265.771807, 176.741957)"><g><path d="M 19.175781 0 L 19.175781 -23.480469 L 31.179688 -23.480469 L 31.179688 -30.441406 L 0.21875 -30.441406 L 0.21875 -23.480469 L 12.21875 -23.480469 L 12.21875 0 Z M 19.175781 0 "/></g></g></g><g fill="rgb(100%, 0%, 0%)" fill-opacity="1"><g transform="translate(301.815018, 176.741957)"><g><path d="M 28.484375 0 L 32.832031 -4.347656 L 32.832031 -30.441406 L 25.875 -30.441406 L 25.875 -18.914062 L 9.132812 -18.914062 L 9.132812 -30.441406 L 2.175781 -30.441406 L 2.175781 -16.308594 L 6.523438 -11.957031 L 25.875 -11.957031 L 25.875 -6.957031 L 4.347656 -6.957031 L 4.347656 0 Z M 28.484375 0 "/></g></g></g><g fill="rgb(0%, 100%, 100%)" fill-opacity="1"><g transform="translate(38.176085, 176.211975)"><g><path d="M 25.65625 -11.742188 L 25.65625 -18.699219 L 10.4375 -18.699219 L 10.4375 -23.480469 L 30.003906 -23.480469 L 30.003906 -30.441406 L 0.21875 -30.441406 L 0.21875 -23.480469 L 3.480469 -23.480469 L 3.480469 0 L 10.4375 0 L 10.4375 -11.742188 Z M 25.65625 -11.742188 "/></g></g></g><g fill="rgb(0%, 100%, 100%)" fill-opacity="1"><g transform="translate(73.262821, 176.211975)"><g><path d="M 29.570312 0 L 33.917969 -4.347656 L 33.917969 -21.308594 L 26.960938 -21.308594 L 26.960938 -6.957031 L 2.175781 -6.957031 L 2.175781 -4.347656 L 6.523438 0 Z M 33.917969 -23.480469 L 33.917969 -26.089844 L 29.570312 -30.441406 L 6.523438 -30.441406 L 2.175781 -26.089844 L 2.175781 -9.132812 L 9.132812 -9.132812 L 9.132812 -23.480469 Z M 33.917969 -23.480469 "/></g></g></g><g fill="rgb(0%, 100%, 100%)" fill-opacity="1"><g transform="translate(114.001519, 176.211975)"><g><path d="M 29.570312 0 L 33.917969 -4.347656 L 33.917969 -21.308594 L 26.960938 -21.308594 L 26.960938 -6.957031 L 2.175781 -6.957031 L 2.175781 -4.347656 L 6.523438 0 Z M 33.917969 -23.480469 L 33.917969 -26.089844 L 29.570312 -30.441406 L 6.523438 -30.441406 L 2.175781 -26.089844 L 2.175781 -9.132812 L 9.132812 -9.132812 L 9.132812 -23.480469 Z M 33.917969 -23.480469 "/></g></g></g><g fill="rgb(0%, 100%, 100%)" fill-opacity="1"><g transform="translate(154.740218, 176.211975)"><g><path d="M 26.527344 0 L 30.875 -4.347656 L 30.875 -26.089844 L 26.527344 -30.441406 L 0.21875 -30.441406 L 0.21875 -23.480469 L 23.917969 -23.480469 L 23.917969 -6.957031 L 10.4375 -6.957031 L 10.4375 -21.308594 L 3.480469 -21.308594 L 3.480469 0 Z M 26.527344 0 "/></g></g></g><g fill="rgb(0%, 100%, 100%)" fill-opacity="1"><g transform="translate(192.435554, 176.211975)"><g/></g></g><g fill="rgb(0%, 100%, 100%)" fill-opacity="1"><g transform="translate(214.4793, 176.211975)"><g><path d="M 31.742188 0 L 31.742188 -6.957031 L 9.132812 -6.957031 L 9.132812 -23.480469 L 25.875 -23.480469 L 25.875 -19.132812 L 32.832031 -19.132812 L 32.832031 -26.089844 L 28.484375 -30.441406 L 6.523438 -30.441406 L 2.175781 -26.089844 L 2.175781 -4.347656 L 6.523438 0 Z M 31.742188 0 "/></g></g></g><g fill="rgb(0%, 100%, 100%)" fill-opacity="1"><g transform="translate(254.131073, 176.211975)"><g><path d="M 9.132812 0 L 9.132812 -30.441406 L 2.175781 -30.441406 L 2.175781 0 Z M 9.132812 0 "/></g></g></g><g fill="rgb(0%, 100%, 100%)" fill-opacity="1"><g transform="translate(270.088073, 176.211975)"><g><path d="M 19.175781 0 L 19.175781 -23.480469 L 31.179688 -23.480469 L 31.179688 -30.441406 L 0.21875 -30.441406 L 0.21875 -23.480469 L 12.21875 -23.480469 L 12.21875 0 Z M 19.175781 0 "/></g></g></g><g fill="rgb(0%, 100%, 100%)" fill-opacity="1"><g transform="translate(306.131283, 176.211975)"><g><path d="M 28.484375 0 L 32.832031 -4.347656 L 32.832031 -30.441406 L 25.875 -30.441406 L 25.875 -18.914062 L 9.132812 -18.914062 L 9.132812 -30.441406 L 2.175781 -30.441406 L 2.175781 -16.308594 L 6.523438 -11.957031 L 25.875 -11.957031 L 25.875 -6.957031 L 4.347656 -6.957031 L 4.347656 0 Z M 28.484375 0 "/></g></g></g><g fill="rgb(18.818665%, 80.778503%, 54.508972%)" fill-opacity="1"><g transform="translate(36.017952, 176.476966)"><g><path d="M 25.65625 -11.742188 L 25.65625 -18.699219 L 10.4375 -18.699219 L 10.4375 -23.480469 L 30.003906 -23.480469 L 30.003906 -30.441406 L 0.21875 -30.441406 L 0.21875 -23.480469 L 3.480469 -23.480469 L 3.480469 0 L 10.4375 0 L 10.4375 -11.742188 Z M 25.65625 -11.742188 "/></g></g></g><g fill="rgb(18.818665%, 80.778503%, 54.508972%)" fill-opacity="1"><g transform="translate(71.104688, 176.476966)"><g><path d="M 29.570312 0 L 33.917969 -4.347656 L 33.917969 -21.308594 L 26.960938 -21.308594 L 26.960938 -6.957031 L 2.175781 -6.957031 L 2.175781 -4.347656 L 6.523438 0 Z M 33.917969 -23.480469 L 33.917969 -26.089844 L 29.570312 -30.441406 L 6.523438 -30.441406 L 2.175781 -26.089844 L 2.175781 -9.132812 L 9.132812 -9.132812 L 9.132812 -23.480469 Z M 33.917969 -23.480469 "/></g></g></g><g fill="rgb(18.818665%, 80.778503%, 54.508972%)" fill-opacity="1"><g transform="translate(111.843387, 176.476966)"><g><path d="M 29.570312 0 L 33.917969 -4.347656 L 33.917969 -21.308594 L 26.960938 -21.308594 L 26.960938 -6.957031 L 2.175781 -6.957031 L 2.175781 -4.347656 L 6.523438 0 Z M 33.917969 -23.480469 L 33.917969 -26.089844 L 29.570312 -30.441406 L 6.523438 -30.441406 L 2.175781 -26.089844 L 2.175781 -9.132812 L 9.132812 -9.132812 L 9.132812 -23.480469 Z M 33.917969 -23.480469 "/></g></g></g><g fill="rgb(18.818665%, 80.778503%, 54.508972%)" fill-opacity="1"><g transform="translate(152.582085, 176.476966)"><g><path d="M 26.527344 0 L 30.875 -4.347656 L 30.875 -26.089844 L 26.527344 -30.441406 L 0.21875 -30.441406 L 0.21875 -23.480469 L 23.917969 -23.480469 L 23.917969 -6.957031 L 10.4375 -6.957031 L 10.4375 -21.308594 L 3.480469 -21.308594 L 3.480469 0 Z M 26.527344 0 "/></g></g></g><g fill="rgb(18.818665%, 80.778503%, 54.508972%)" fill-opacity="1"><g transform="translate(190.277422, 176.476966)"><g/></g></g><g fill="rgb(18.818665%, 80.778503%, 54.508972%)" fill-opacity="1"><g transform="translate(212.321167, 176.476966)"><g><path d="M 31.742188 0 L 31.742188 -6.957031 L 9.132812 -6.957031 L 9.132812 -23.480469 L 25.875 -23.480469 L 25.875 -19.132812 L 32.832031 -19.132812 L 32.832031 -26.089844 L 28.484375 -30.441406 L 6.523438 -30.441406 L 2.175781 -26.089844 L 2.175781 -4.347656 L 6.523438 0 Z M 31.742188 0 "/></g></g></g><g fill="rgb(18.818665%, 80.778503%, 54.508972%)" fill-opacity="1"><g transform="translate(251.97294, 176.476966)"><g><path d="M 9.132812 0 L 9.132812 -30.441406 L 2.175781 -30.441406 L 2.175781 0 Z M 9.132812 0 "/></g></g></g><g fill="rgb(18.818665%, 80.778503%, 54.508972%)" fill-opacity="1"><g transform="translate(267.92994, 176.476966)"><g><path d="M 19.175781 0 L 19.175781 -23.480469 L 31.179688 -23.480469 L 31.179688 -30.441406 L 0.21875 -30.441406 L 0.21875 -23.480469 L 12.21875 -23.480469 L 12.21875 0 Z M 19.175781 0 "/></g></g></g><g fill="rgb(18.818665%, 80.778503%, 54.508972%)" fill-opacity="1"><g transform="translate(303.97315, 176.476966)"><g><path d="M 28.484375 0 L 32.832031 -4.347656 L 32.832031 -30.441406 L 25.875 -30.441406 L 25.875 -18.914062 L 9.132812 -18.914062 L 9.132812 -30.441406 L 2.175781 -30.441406 L 2.175781 -16.308594 L 6.523438 -11.957031 L 25.875 -11.957031 L 25.875 -6.957031 L 4.347656 -6.957031 L 4.347656 0 Z M 28.484375 0 "/></g></g></g></svg>