<svg xmlns="http://www.w3.org/2000/svg" xmlns:xlink="http://www.w3.org/1999/xlink" width="500" zoomAndPan="magnify" viewBox="0 0 375 374.999991" height="500" preserveAspectRatio="xMidYMid meet" version="1.0"><defs><g/></defs><g fill="rgb(100%, 0%, 100%)" fill-opacity="1"><g transform="translate(48.460947, 224.97498)"><g><path d="M 25.796875 -39.894531 L 5.300781 -39.894531 C 3.300781 -39.894531 1.648438 -38.246094 1.648438 -36.195312 L 1.648438 -3.699219 C 1.648438 -1.648438 3.300781 0 5.300781 0 L 11.550781 0 C 13.597656 0 15.25 -1.648438 15.25 -3.699219 L 15.25 -13.097656 C 15.25 -13.347656 15.398438 -13.449219 15.597656 -13.5 L 22.949219 -13.5 C 24.246094 -13.5 25.347656 -14.546875 25.347656 -15.847656 L 25.347656 -21.347656 C 25.347656 -22.699219 24.246094 -23.746094 22.949219 -23.746094 L 15.597656 -23.746094 C 15.398438 -23.746094 15.25 -23.898438 15.25 -24.097656 L 15.25 -28.695312 C 15.25 -28.847656 15.398438 -29.046875 15.597656 -29.046875 L 25.796875 -29.046875 C 27.246094 -29.046875 28.398438 -30.246094 28.398438 -31.648438 L 28.398438 -37.246094 C 28.398438 -38.746094 27.246094 -39.894531 25.796875 -39.894531 Z M 25.796875 -39.894531 "/></g></g></g><g fill="rgb(100%, 0%, 100%)" fill-opacity="1"><g transform="translate(78.506298, 224.97498)"><g><path d="M 17.148438 -40.597656 C 8.949219 -40.597656 0.851562 -33.996094 0.851562 -25.746094 L 0.851562 -14.347656 C 0.851562 -5.800781 8.949219 0.851562 17.148438 0.851562 C 25.546875 0.851562 33.445312 -5.800781 33.445312 -14.347656 L 33.445312 -25.746094 C 33.445312 -33.996094 25.546875 -40.597656 17.148438 -40.597656 Z M 20.496094 -14.847656 C 20.496094 -13.148438 18.949219 -11.648438 17.148438 -11.648438 C 15.296875 -11.648438 13.847656 -13.148438 13.847656 -14.847656 L 13.847656 -24.847656 C 13.847656 -26.648438 15.296875 -28.148438 17.148438 -28.148438 C 18.949219 -28.148438 20.496094 -26.648438 20.496094 -24.847656 Z M 20.496094 -14.847656 "/></g></g></g><g fill="rgb(100%, 0%, 100%)" fill-opacity="1"><g transform="translate(112.800989, 224.97498)"><g><path d="M 17.148438 -40.597656 C 8.949219 -40.597656 0.851562 -33.996094 0.851562 -25.746094 L 0.851562 -14.347656 C 0.851562 -5.800781 8.949219 0.851562 17.148438 0.851562 C 25.546875 0.851562 33.445312 -5.800781 33.445312 -14.347656 L 33.445312 -25.746094 C 33.445312 -33.996094 25.546875 -40.597656 17.148438 -40.597656 Z M 20.496094 -14.847656 C 20.496094 -13.148438 18.949219 -11.648438 17.148438 -11.648438 C 15.296875 -11.648438 13.847656 -13.148438 13.847656 -14.847656 L 13.847656 -24.847656 C 13.847656 -26.648438 15.296875 -28.148438 17.148438 -28.148438 C 18.949219 -28.148438 20.496094 -26.648438 20.496094 -24.847656 Z M 20.496094 -14.847656 "/></g></g></g><g fill="rgb(100%, 0%, 100%)" fill-opacity="1"><g transform="translate(147.095679, 224.97498)"><g><path d="M 18.699219 -39.945312 L 5.25 -39.945312 C 3.148438 -39.945312 1.648438 -38.195312 1.648438 -36.347656 L 1.648438 -3.800781 C 1.648438 -2 3.148438 -0.148438 5.25 -0.148438 L 18.699219 -0.148438 C 26.546875 -0.148438 32.546875 -6.5 32.546875 -14.046875 L 32.546875 -26.097656 C 32.546875 -33.648438 26.546875 -39.945312 18.699219 -39.945312 Z M 20.347656 -18.847656 C 20.347656 -16.75 18.796875 -15.296875 16.75 -15.296875 L 14.347656 -15.296875 C 14 -15.296875 13.648438 -15.546875 13.648438 -16.148438 L 13.648438 -23.949219 C 13.648438 -24.597656 14 -24.898438 14.347656 -24.898438 L 16.75 -24.898438 C 18.796875 -24.898438 20.347656 -23.398438 20.347656 -21.246094 Z M 20.347656 -18.847656 "/></g></g></g><g fill="rgb(100%, 0%, 100%)" fill-opacity="1"><g transform="translate(180.890446, 224.97498)"><g/></g></g><g fill="rgb(100%, 0%, 100%)" fill-opacity="1"><g transform="translate(197.887816, 224.97498)"><g><path d="M 21.199219 -15.847656 C 20.746094 -15.847656 20.398438 -15.5 20.398438 -15.046875 C 20.398438 -13.347656 18.847656 -11.847656 17.097656 -11.847656 C 15.25 -11.847656 13.796875 -13.347656 13.796875 -15.046875 L 13.796875 -24.949219 C 13.796875 -27.347656 16.347656 -29.246094 19.046875 -27.695312 C 19.796875 -27.246094 20.398438 -26.148438 20.398438 -25.246094 L 20.398438 -24.996094 C 20.398438 -24.597656 20.746094 -24.199219 21.199219 -24.199219 L 32.597656 -24.199219 C 32.945312 -24.199219 33.296875 -24.546875 33.296875 -24.949219 L 33.296875 -25.847656 C 33.296875 -34.046875 25.449219 -40.644531 17.097656 -40.644531 C 8.898438 -40.644531 0.851562 -34.046875 0.851562 -25.847656 L 0.851562 -14.546875 C 0.851562 -6.050781 8.898438 0.601562 17.097656 0.601562 C 25.449219 0.601562 33.296875 -6.050781 33.296875 -14.546875 L 33.296875 -15.148438 C 33.296875 -15.5 32.945312 -15.847656 32.597656 -15.847656 Z M 21.199219 -15.847656 "/></g></g></g><g fill="rgb(100%, 0%, 100%)" fill-opacity="1"><g transform="translate(232.032532, 224.97498)"><g><path d="M 5.199219 0.0507812 L 11.398438 0.0507812 C 13.5 0.0507812 15 -1.648438 15 -3.550781 L 15 -36.394531 C 15 -38.496094 13.5 -39.996094 11.398438 -39.996094 L 5.199219 -39.996094 C 3.25 -39.996094 1.648438 -38.496094 1.648438 -36.394531 L 1.648438 -3.550781 C 1.648438 -1.648438 3.25 0.0507812 5.199219 0.0507812 Z M 5.199219 0.0507812 "/></g></g></g><g fill="rgb(100%, 0%, 100%)" fill-opacity="1"><g transform="translate(248.679942, 224.97498)"><g><path d="M 33.496094 -39.996094 L 5.148438 -39.996094 C 3.25 -39.996094 1.648438 -38.445312 1.648438 -36.496094 L 1.648438 -29.648438 C 1.648438 -27.746094 3.25 -26.148438 5.148438 -26.148438 L 12.046875 -26.148438 C 12.25 -26.148438 12.398438 -25.949219 12.398438 -25.796875 L 12.398438 -3.398438 C 12.398438 -1.5 13.949219 0.101562 15.949219 0.101562 L 22.746094 0.101562 C 24.648438 0.101562 26.246094 -1.5 26.246094 -3.398438 L 26.246094 -25.796875 C 26.246094 -25.949219 26.449219 -26.148438 26.648438 -26.148438 L 33.496094 -26.148438 C 35.394531 -26.148438 36.996094 -27.746094 36.996094 -29.648438 L 36.996094 -36.496094 C 36.996094 -38.445312 35.394531 -39.996094 33.496094 -39.996094 Z M 33.496094 -39.996094 "/></g></g></g><g fill="rgb(100%, 0%, 100%)" fill-opacity="1"><g transform="translate(287.32396, 224.97498)"><g><path d="M 39.644531 -35.996094 C 39.945312 -36.246094 40.246094 -36.894531 40.246094 -37.546875 C 40.246094 -39.097656 39.046875 -40.046875 37.746094 -40.046875 L 28.695312 -40.046875 C 28.097656 -40.046875 27.597656 -39.746094 27.148438 -39.097656 L 20.546875 -29.996094 L 14.296875 -39.097656 C 13.796875 -39.894531 13 -40.046875 12.449219 -40.046875 L 3.351562 -40.046875 C 2.050781 -40.046875 0.851562 -39.097656 0.851562 -37.546875 C 0.851562 -36.894531 1.148438 -36.246094 1.5 -35.996094 L 13.347656 -19.046875 L 13.347656 -2.851562 C 13.347656 -1.199219 14.949219 0 16.5 0 L 24.597656 0 C 26.148438 0 27.796875 -1.199219 27.796875 -2.851562 L 27.796875 -19.046875 Z M 39.644531 -35.996094 "/></g></g></g><g fill="rgb(0%, 100%, 100%)" fill-opacity="1"><g transform="translate(46.585947, 224.97498)"><g><path d="M 25.796875 -39.894531 L 5.300781 -39.894531 C 3.300781 -39.894531 1.648438 -38.246094 1.648438 -36.195312 L 1.648438 -3.699219 C 1.648438 -1.648438 3.300781 0 5.300781 0 L 11.550781 0 C 13.597656 0 15.25 -1.648438 15.25 -3.699219 L 15.25 -13.097656 C 15.25 -13.347656 15.398438 -13.449219 15.597656 -13.5 L 22.949219 -13.5 C 24.246094 -13.5 25.347656 -14.546875 25.347656 -15.847656 L 25.347656 -21.347656 C 25.347656 -22.699219 24.246094 -23.746094 22.949219 -23.746094 L 15.597656 -23.746094 C 15.398438 -23.746094 15.25 -23.898438 15.25 -24.097656 L 15.25 -28.695312 C 15.25 -28.847656 15.398438 -29.046875 15.597656 -29.046875 L 25.796875 -29.046875 C 27.246094 -29.046875 28.398438 -30.246094 28.398438 -31.648438 L 28.398438 -37.246094 C 28.398438 -38.746094 27.246094 -39.894531 25.796875 -39.894531 Z M 25.796875 -39.894531 "/></g></g></g><g fill="rgb(0%, 100%, 100%)" fill-opacity="1"><g transform="translate(76.631298, 224.97498)"><g><path d="M 17.148438 -40.597656 C 8.949219 -40.597656 0.851562 -33.996094 0.851562 -25.746094 L 0.851562 -14.347656 C 0.851562 -5.800781 8.949219 0.851562 17.148438 0.851562 C 25.546875 0.851562 33.445312 -5.800781 33.445312 -14.347656 L 33.445312 -25.746094 C 33.445312 -33.996094 25.546875 -40.597656 17.148438 -40.597656 Z M 20.496094 -14.847656 C 20.496094 -13.148438 18.949219 -11.648438 17.148438 -11.648438 C 15.296875 -11.648438 13.847656 -13.148438 13.847656 -14.847656 L 13.847656 -24.847656 C 13.847656 -26.648438 15.296875 -28.148438 17.148438 -28.148438 C 18.949219 -28.148438 20.496094 -26.648438 20.496094 -24.847656 Z M 20.496094 -14.847656 "/></g></g></g><g fill="rgb(0%, 100%, 100%)" fill-opacity="1"><g transform="translate(110.925989, 224.97498)"><g><path d="M 17.148438 -40.597656 C 8.949219 -40.597656 0.851562 -33.996094 0.851562 -25.746094 L 0.851562 -14.347656 C 0.851562 -5.800781 8.949219 0.851562 17.148438 0.851562 C 25.546875 0.851562 33.445312 -5.800781 33.445312 -14.347656 L 33.445312 -25.746094 C 33.445312 -33.996094 25.546875 -40.597656 17.148438 -40.597656 Z M 20.496094 -14.847656 C 20.496094 -13.148438 18.949219 -11.648438 17.148438 -11.648438 C 15.296875 -11.648438 13.847656 -13.148438 13.847656 -14.847656 L 13.847656 -24.847656 C 13.847656 -26.648438 15.296875 -28.148438 17.148438 -28.148438 C 18.949219 -28.148438 20.496094 -26.648438 20.496094 -24.847656 Z M 20.496094 -14.847656 "/></g></g></g><g fill="rgb(0%, 100%, 100%)" fill-opacity="1"><g transform="translate(145.220679, 224.97498)"><g><path d="M 18.699219 -39.945312 L 5.25 -39.945312 C 3.148438 -39.945312 1.648438 -38.195312 1.648438 -36.347656 L 1.648438 -3.800781 C 1.648438 -2 3.148438 -0.148438 5.25 -0.148438 L 18.699219 -0.148438 C 26.546875 -0.148438 32.546875 -6.5 32.546875 -14.046875 L 32.546875 -26.097656 C 32.546875 -33.648438 26.546875 -39.945312 18.699219 -39.945312 Z M 20.347656 -18.847656 C 20.347656 -16.75 18.796875 -15.296875 16.75 -15.296875 L 14.347656 -15.296875 C 14 -15.296875 13.648438 -15.546875 13.648438 -16.148438 L 13.648438 -23.949219 C 13.648438 -24.597656 14 -24.898438 14.347656 -24.898438 L 16.75 -24.898438 C 18.796875 -24.898438 20.347656 -23.398438 20.347656 -21.246094 Z M 20.347656 -18.847656 "/></g></g></g><g fill="rgb(0%, 100%, 100%)" fill-opacity="1"><g transform="translate(179.015446, 224.97498)"><g/></g></g><g fill="rgb(0%, 100%, 100%)" fill-opacity="1"><g transform="translate(196.012816, 224.97498)"><g><path d="M 21.199219 -15.847656 C 20.746094 -15.847656 20.398438 -15.5 20.398438 -15.046875 C 20.398438 -13.347656 18.847656 -11.847656 17.097656 -11.847656 C 15.25 -11.847656 13.796875 -13.347656 13.796875 -15.046875 L 13.796875 -24.949219 C 13.796875 -27.347656 16.347656 -29.246094 19.046875 -27.695312 C 19.796875 -27.246094 20.398438 -26.148438 20.398438 -25.246094 L 20.398438 -24.996094 C 20.398438 -24.597656 20.746094 -24.199219 21.199219 -24.199219 L 32.597656 -24.199219 C 32.945312 -24.199219 33.296875 -24.546875 33.296875 -24.949219 L 33.296875 -25.847656 C 33.296875 -34.046875 25.449219 -40.644531 17.097656 -40.644531 C 8.898438 -40.644531 0.851562 -34.046875 0.851562 -25.847656 L 0.851562 -14.546875 C 0.851562 -6.050781 8.898438 0.601562 17.097656 0.601562 C 25.449219 0.601562 33.296875 -6.050781 33.296875 -14.546875 L 33.296875 -15.148438 C 33.296875 -15.5 32.945312 -15.847656 32.597656 -15.847656 Z M 21.199219 -15.847656 "/></g></g></g><g fill="rgb(0%, 100%, 100%)" fill-opacity="1"><g transform="translate(230.157532, 224.97498)"><g><path d="M 5.199219 0.0507812 L 11.398438 0.0507812 C 13.5 0.0507812 15 -1.648438 15 -3.550781 L 15 -36.394531 C 15 -38.496094 13.5 -39.996094 11.398438 -39.996094 L 5.199219 -39.996094 C 3.25 -39.996094 1.648438 -38.496094 1.648438 -36.394531 L 1.648438 -3.550781 C 1.648438 -1.648438 3.25 0.0507812 5.199219 0.0507812 Z M 5.199219 0.0507812 "/></g></g></g><g fill="rgb(0%, 100%, 100%)" fill-opacity="1"><g transform="translate(246.804942, 224.97498)"><g><path d="M 33.496094 -39.996094 L 5.148438 -39.996094 C 3.25 -39.996094 1.648438 -38.445312 1.648438 -36.496094 L 1.648438 -29.648438 C 1.648438 -27.746094 3.25 -26.148438 5.148438 -26.148438 L 12.046875 -26.148438 C 12.25 -26.148438 12.398438 -25.949219 12.398438 -25.796875 L 12.398438 -3.398438 C 12.398438 -1.5 13.949219 0.101562 15.949219 0.101562 L 22.746094 0.101562 C 24.648438 0.101562 26.246094 -1.5 26.246094 -3.398438 L 26.246094 -25.796875 C 26.246094 -25.949219 26.449219 -26.148438 26.648438 -26.148438 L 33.496094 -26.148438 C 35.394531 -26.148438 36.996094 -27.746094 36.996094 -29.648438 L 36.996094 -36.496094 C 36.996094 -38.445312 35.394531 -39.996094 33.496094 -39.996094 Z M 33.496094 -39.996094 "/></g></g></g><g fill="rgb(0%, 100%, 100%)" fill-opacity="1"><g transform="translate(285.44896, 224.97498)"><g><path d="M 39.644531 -35.996094 C 39.945312 -36.246094 40.246094 -36.894531 40.246094 -37.546875 C 40.246094 -39.097656 39.046875 -40.046875 37.746094 -40.046875 L 28.695312 -40.046875 C 28.097656 -40.046875 27.597656 -39.746094 27.148438 -39.097656 L 20.546875 -29.996094 L 14.296875 -39.097656 C 13.796875 -39.894531 13 -40.046875 12.449219 -40.046875 L 3.351562 -40.046875 C 2.050781 -40.046875 0.851562 -39.097656 0.851562 -37.546875 C 0.851562 -36.894531 1.148438 -36.246094 1.5 -35.996094 L 13.347656 -19.046875 L 13.347656 -2.851562 C 13.347656 -1.199219 14.949219 0 16.5 0 L 24.597656 0 C 26.148438 0 27.796875 -1.199219 27.796875 -2.851562 L 27.796875 -19.046875 Z M 39.644531 -35.996094 "/></g></g></g><g fill="rgb(18.818665%, 80.778503%, 54.508972%)" fill-opacity="1"><g transform="translate(47.523447, 224.97498)"><g><path d="M 25.796875 -39.894531 L 5.300781 -39.894531 C 3.300781 -39.894531 1.648438 -38.246094 1.648438 -36.195312 L 1.648438 -3.699219 C 1.648438 -1.648438 3.300781 0 5.300781 0 L 11.550781 0 C 13.597656 0 15.25 -1.648438 15.25 -3.699219 L 15.25 -13.097656 C 15.25 -13.347656 15.398438 -13.449219 15.597656 -13.5 L 22.949219 -13.5 C 24.246094 -13.5 25.347656 -14.546875 25.347656 -15.847656 L 25.347656 -21.347656 C 25.347656 -22.699219 24.246094 -23.746094 22.949219 -23.746094 L 15.597656 -23.746094 C 15.398438 -23.746094 15.25 -23.898438 15.25 -24.097656 L 15.25 -28.695312 C 15.25 -28.847656 15.398438 -29.046875 15.597656 -29.046875 L 25.796875 -29.046875 C 27.246094 -29.046875 28.398438 -30.246094 28.398438 -31.648438 L 28.398438 -37.246094 C 28.398438 -38.746094 27.246094 -39.894531 25.796875 -39.894531 Z M 25.796875 -39.894531 "/></g></g></g><g fill="rgb(18.818665%, 80.778503%, 54.508972%)" fill-opacity="1"><g transform="translate(77.568798, 224.97498)"><g><path d="M 17.148438 -40.597656 C 8.949219 -40.597656 0.851562 -33.996094 0.851562 -25.746094 L 0.851562 -14.347656 C 0.851562 -5.800781 8.949219 0.851562 17.148438 0.851562 C 25.546875 0.851562 33.445312 -5.800781 33.445312 -14.347656 L 33.445312 -25.746094 C 33.445312 -33.996094 25.546875 -40.597656 17.148438 -40.597656 Z M 20.496094 -14.847656 C 20.496094 -13.148438 18.949219 -11.648438 17.148438 -11.648438 C 15.296875 -11.648438 13.847656 -13.148438 13.847656 -14.847656 L 13.847656 -24.847656 C 13.847656 -26.648438 15.296875 -28.148438 17.148438 -28.148438 C 18.949219 -28.148438 20.496094 -26.648438 20.496094 -24.847656 Z M 20.496094 -14.847656 "/></g></g></g><g fill="rgb(18.818665%, 80.778503%, 54.508972%)" fill-opacity="1"><g transform="translate(111.863489, 224.97498)"><g><path d="M 17.148438 -40.597656 C 8.949219 -40.597656 0.851562 -33.996094 0.851562 -25.746094 L 0.851562 -14.347656 C 0.851562 -5.800781 8.949219 0.851562 17.148438 0.851562 C 25.546875 0.851562 33.445312 -5.800781 33.445312 -14.347656 L 33.445312 -25.746094 C 33.445312 -33.996094 25.546875 -40.597656 17.148438 -40.597656 Z M 20.496094 -14.847656 C 20.496094 -13.148438 18.949219 -11.648438 17.148438 -11.648438 C 15.296875 -11.648438 13.847656 -13.148438 13.847656 -14.847656 L 13.847656 -24.847656 C 13.847656 -26.648438 15.296875 -28.148438 17.148438 -28.148438 C 18.949219 -28.148438 20.496094 -26.648438 20.496094 -24.847656 Z M 20.496094 -14.847656 "/></g></g></g><g fill="rgb(18.818665%, 80.778503%, 54.508972%)" fill-opacity="1"><g transform="translate(146.158179, 224.97498)"><g><path d="M 18.699219 -39.945312 L 5.25 -39.945312 C 3.148438 -39.945312 1.648438 -38.195312 1.648438 -36.347656 L 1.648438 -3.800781 C 1.648438 -2 3.148438 -0.148438 5.25 -0.148438 L 18.699219 -0.148438 C 26.546875 -0.148438 32.546875 -6.5 32.546875 -14.046875 L 32.546875 -26.097656 C 32.546875 -33.648438 26.546875 -39.945312 18.699219 -39.945312 Z M 20.347656 -18.847656 C 20.347656 -16.75 18.796875 -15.296875 16.75 -15.296875 L 14.347656 -15.296875 C 14 -15.296875 13.648438 -15.546875 13.648438 -16.148438 L 13.648438 -23.949219 C 13.648438 -24.597656 14 -24.898438 14.347656 -24.898438 L 16.75 -24.898438 C 18.796875 -24.898438 20.347656 -23.398438 20.347656 -21.246094 Z M 20.347656 -18.847656 "/></g></g></g><g fill="rgb(18.818665%, 80.778503%, 54.508972%)" fill-opacity="1"><g transform="translate(179.952946, 224.97498)"><g/></g></g><g fill="rgb(18.818665%, 80.778503%, 54.508972%)" fill-opacity="1"><g transform="translate(196.950316, 224.97498)"><g><path d="M 21.199219 -15.847656 C 20.746094 -15.847656 20.398438 -15.5 20.398438 -15.046875 C 20.398438 -13.347656 18.847656 -11.847656 17.097656 -11.847656 C 15.25 -11.847656 13.796875 -13.347656 13.796875 -15.046875 L 13.796875 -24.949219 C 13.796875 -27.347656 16.347656 -29.246094 19.046875 -27.695312 C 19.796875 -27.246094 20.398438 -26.148438 20.398438 -25.246094 L 20.398438 -24.996094 C 20.398438 -24.597656 20.746094 -24.199219 21.199219 -24.199219 L 32.597656 -24.199219 C 32.945312 -24.199219 33.296875 -24.546875 33.296875 -24.949219 L 33.296875 -25.847656 C 33.296875 -34.046875 25.449219 -40.644531 17.097656 -40.644531 C 8.898438 -40.644531 0.851562 -34.046875 0.851562 -25.847656 L 0.851562 -14.546875 C 0.851562 -6.050781 8.898438 0.601562 17.097656 0.601562 C 25.449219 0.601562 33.296875 -6.050781 33.296875 -14.546875 L 33.296875 -15.148438 C 33.296875 -15.5 32.945312 -15.847656 32.597656 -15.847656 Z M 21.199219 -15.847656 "/></g></g></g><g fill="rgb(18.818665%, 80.778503%, 54.508972%)" fill-opacity="1"><g transform="translate(231.095032, 224.97498)"><g><path d="M 5.199219 0.0507812 L 11.398438 0.0507812 C 13.5 0.0507812 15 -1.648438 15 -3.550781 L 15 -36.394531 C 15 -38.496094 13.5 -39.996094 11.398438 -39.996094 L 5.199219 -39.996094 C 3.25 -39.996094 1.648438 -38.496094 1.648438 -36.394531 L 1.648438 -3.550781 C 1.648438 -1.648438 3.25 0.0507812 5.199219 0.0507812 Z M 5.199219 0.0507812 "/></g></g></g><g fill="rgb(18.818665%, 80.778503%, 54.508972%)" fill-opacity="1"><g transform="translate(247.742442, 224.97498)"><g><path d="M 33.496094 -39.996094 L 5.148438 -39.996094 C 3.25 -39.996094 1.648438 -38.445312 1.648438 -36.496094 L 1.648438 -29.648438 C 1.648438 -27.746094 3.25 -26.148438 5.148438 -26.148438 L 12.046875 -26.148438 C 12.25 -26.148438 12.398438 -25.949219 12.398438 -25.796875 L 12.398438 -3.398438 C 12.398438 -1.5 13.949219 0.101562 15.949219 0.101562 L 22.746094 0.101562 C 24.648438 0.101562 26.246094 -1.5 26.246094 -3.398438 L 26.246094 -25.796875 C 26.246094 -25.949219 26.449219 -26.148438 26.648438 -26.148438 L 33.496094 -26.148438 C 35.394531 -26.148438 36.996094 -27.746094 36.996094 -29.648438 L 36.996094 -36.496094 C 36.996094 -38.445312 35.394531 -39.996094 33.496094 -39.996094 Z M 33.496094 -39.996094 "/></g></g></g><g fill="rgb(18.818665%, 80.778503%, 54.508972%)" fill-opacity="1"><g transform="translate(286.38646, 224.97498)"><g><path d="M 39.644531 -35.996094 C 39.945312 -36.246094 40.246094 -36.894531 40.246094 -37.546875 C 40.246094 -39.097656 39.046875 -40.046875 37.746094 -40.046875 L 28.695312 -40.046875 C 28.097656 -40.046875 27.597656 -39.746094 27.148438 -39.097656 L 20.546875 -29.996094 L 14.296875 -39.097656 C 13.796875 -39.894531 13 -40.046875 12.449219 -40.046875 L 3.351562 -40.046875 C 2.050781 -40.046875 0.851562 -39.097656 0.851562 -37.546875 C 0.851562 -36.894531 1.148438 -36.246094 1.5 -35.996094 L 13.347656 -19.046875 L 13.347656 -2.851562 C 13.347656 -1.199219 14.949219 0 16.5 0 L 24.597656 0 C 26.148438 0 27.796875 -1.199219 27.796875 -2.851562 L 27.796875 -19.046875 Z M 39.644531 -35.996094 "/></g></g></g></svg>